<svg width="24" height="25" viewBox="0 0 24 25" fill="none" xmlns="http://www.w3.org/2000/svg">
<mask id="mask0_3946_890" style="mask-type:alpha" maskUnits="userSpaceOnUse" x="0" y="0" width="24" height="25">
<rect width="24" height="25" fill="#D9D9D9"/>
</mask>
<g mask="url(#mask0_3946_890)">
<path d="M5.235 17.7806C6.17 17.0993 7.215 16.5621 8.37 16.169C9.525 15.776 10.735 15.5794 12 15.5794C13.265 15.5794 14.475 15.776 15.63 16.169C16.785 16.5621 17.83 17.0993 18.765 17.7806C19.4067 17.0643 19.9063 16.252 20.2638 15.3436C20.6213 14.4352 20.8 13.4656 20.8 12.4349C20.8 10.1114 19.9429 8.133 18.2288 6.49959C16.5146 4.86618 14.4383 4.04948 12 4.04948C9.56167 4.04948 7.48542 4.86618 5.77125 6.49959C4.05708 8.133 3.2 10.1114 3.2 12.4349C3.2 13.4656 3.37875 14.4352 3.73625 15.3436C4.09375 16.252 4.59333 17.0643 5.235 17.7806ZM12 13.4831C10.9183 13.4831 10.0063 13.1293 9.26375 12.4218C8.52125 11.7143 8.15 10.8452 8.15 9.81445C8.15 8.78375 8.52125 7.91463 9.26375 7.20711C10.0063 6.49959 10.9183 6.14583 12 6.14583C13.0817 6.14583 13.9938 6.49959 14.7363 7.20711C15.4788 7.91463 15.85 8.78375 15.85 9.81445C15.85 10.8452 15.4788 11.7143 14.7363 12.4218C13.9938 13.1293 13.0817 13.4831 12 13.4831ZM12 22.9167C10.4783 22.9167 9.04833 22.6415 7.71 22.0912C6.37167 21.5409 5.2075 20.7941 4.2175 19.8507C3.2275 18.9074 2.44375 17.7981 1.86625 16.5228C1.28875 15.2475 1 13.8849 1 12.4349C1 10.9849 1.28875 9.62229 1.86625 8.34701C2.44375 7.07172 3.2275 5.9624 4.2175 5.01904C5.2075 4.07568 6.37167 3.32886 7.71 2.77856C9.04833 2.22827 10.4783 1.95312 12 1.95312C13.5217 1.95312 14.9517 2.22827 16.29 2.77856C17.6283 3.32886 18.7925 4.07568 19.7825 5.01904C20.7725 5.9624 21.5562 7.07172 22.1338 8.34701C22.7113 9.62229 23 10.9849 23 12.4349C23 13.8849 22.7113 15.2475 22.1338 16.5228C21.5562 17.7981 20.7725 18.9074 19.7825 19.8507C18.7925 20.7941 17.6283 21.5409 16.29 22.0912C14.9517 22.6415 13.5217 22.9167 12 22.9167ZM12 20.8203C12.9717 20.8203 13.8883 20.6849 14.75 20.4141C15.6117 20.1434 16.4 19.7547 17.115 19.248C16.4 18.7414 15.6117 18.3527 14.75 18.082C13.8883 17.8112 12.9717 17.6758 12 17.6758C11.0283 17.6758 10.1117 17.8112 9.25 18.082C8.38833 18.3527 7.6 18.7414 6.885 19.248C7.6 19.7547 8.38833 20.1434 9.25 20.4141C10.1117 20.6849 11.0283 20.8203 12 20.8203ZM12 11.3867C12.4767 11.3867 12.8708 11.2382 13.1825 10.9412C13.4942 10.6443 13.65 10.2687 13.65 9.81445C13.65 9.36024 13.4942 8.98465 13.1825 8.68766C12.8708 8.39068 12.4767 8.24219 12 8.24219C11.5233 8.24219 11.1292 8.39068 10.8175 8.68766C10.5058 8.98465 10.35 9.36024 10.35 9.81445C10.35 10.2687 10.5058 10.6443 10.8175 10.9412C11.1292 11.2382 11.5233 11.3867 12 11.3867Z" fill="#374785"/>
</g>
</svg>
